<?xml version="1.0" standalone="no"?><!DOCTYPE svg PUBLIC "-//W3C//DTD SVG 1.1//EN" "http://www.w3.org/Graphics/SVG/1.1/DTD/svg11.dtd"><svg t="1702112521483" class="icon" viewBox="0 0 1024 1024" version="1.1" xmlns="http://www.w3.org/2000/svg" p-id="1550" xmlns:xlink="http://www.w3.org/1999/xlink" width="200" height="200"><path d="M957.4472 397.268945h-63.786146V316.176605C893.661054 142.220199 722.411986 1.19907 511.143839 1.19907 299.883679 1.19907 128.63461 142.220199 128.63461 316.176605v81.09234H64.848464c-35.203372 0-63.786145 23.479563-63.786145 52.525539v520.144189c0 29.045976 28.510898 52.525539 63.786145 52.525539H957.4472c35.195385 0 63.786145-23.479563 63.786145-52.525539v-520.144189c-0.06389-29.03799-28.59076-52.525539-63.786145-52.525539z m-191.294546 0H256.135024V316.176605c0-115.992234 114.211301-209.998334 255.008815-209.998333 140.797514 0 255.016801 94.054017 255.016801 209.998333v81.084354z" p-id="1551"></path></svg>